<?xml version="1.0" encoding="UTF-8"?>
<svg id="Layer_1" data-name="Layer 1" xmlns="http://www.w3.org/2000/svg" viewBox="0 0 947.14 973.07">
  <defs>
    <style>
      .cls-1 {
        fill: #fff;
      }
    </style>
  </defs>
  <g id="Generative_Object" data-name="Generative Object">
    <path class="cls-1" d="M745.25,838.72c-20.24,73.03-92.25,117.85-167.37,103.91-43.25-8.03-80.27-34.46-103.77-73.04-24.5,40.79-64.37,67.99-110.66,74.24-72.8,9.83-140.86-34.88-160.23-105.06-35.51-1.1-68.56-14.59-94.96-37.34-50.2-43.25-66.3-111.89-39.17-172.6C-1.18,569.31-2.34,463.56,64.65,403.52c-30.5-74.14,4.8-154.44,80.63-178.65-4.84-38.08,7.07-75.83,34.53-103.04,25.58-25.36,60.92-36.99,97.3-33.57,11.3-20.79,27.41-36.68,48.11-48.29,32.82-15.91,70.78-15.96,103.92-.53,18.18,9.79,32.98,23.5,44.93,41.09,12.65-17.52,26.87-32.23,46.2-41.25,33.98-15.86,73.59-15.39,106.28,2.79,19.68,10.94,33.39,27.16,44.86,46.27,42.85-4.14,84.47,13.28,109.54,48.04,18.63,25.84,26.12,56.23,22.35,88.5,76.34,24.57,110.29,104.38,80.52,178.72,67.71,60.19,64.94,166.91-4.55,224.98,14.14,32.99,17.46,69.38,6.64,103.63-19.2,60.77-75.3,104.17-140.65,106.51ZM848.96,426.94c-10.77-7.89-11.92-19.29-5.96-31.13,17.23-34.22,15.18-75.17-9.65-104.77-24.57-29.28-65.66-40.24-100.74-24.63-27.25,12.13-41.63,39.43-43.16,67.57-.62,11.42-10.13,18.4-19.87,18.38-10.37-.03-18.74-6.26-20.43-17.14.19-36.02,16.52-69.9,45.02-92.36,19.85-15.64,43.99-22.5,69.24-23.93,3.33-30.15-8.8-59.75-33.72-77.05-19.16-13.3-43.41-18.57-65.33-9.94-19.61,7.72-30.73,28.46-31.63,48.93-.51,11.69-7.56,20.26-19.28,21.09-8.77.62-20.7-5.71-21.19-16.93-1.35-31.49,14.63-64.56,40.95-81.93-14.04-23.35-38.14-35.52-64.13-35.02s-50.87,14.56-64.07,38.5c-6.39,11.59-10.91,25.18-10.9,39.67l.36,652.49c.03,45.86,32.6,84.99,74.13,100.03,57.95,21,120.92-11.23,137.25-69.89,8.28-29.76,1.37-59.83-20.73-81.43-8.21-8.03-7.99-20.72.04-28.65,6.82-6.73,18.57-8.6,27-.91,22.89,20.88,35.2,49.62,37.03,80.5,30.02-2.3,55.68-16.03,74.93-37.48,27.58-30.74,35.89-73.63,19.77-111.83-36.37,16.7-74.9,13.71-110.2-1.44-11.19-4.8-18.48-13.57-15.14-25.76,2.71-9.88,15.25-19.31,25.81-13.71,34.75,18.44,74.54,15.97,105.78-7.97,25.46-19.52,40.33-47.49,42.23-79.9,2.16-36.86-13.75-71.61-43.44-93.36ZM67.37,563.07c11.17,22.65,30.04,39.56,52.3,49.44,28.38,12.59,58.37,9.26,85.08-4.42,10.03-5.14,21.91,3.83,24.79,12.76,3.48,10.78-1.93,20.82-12.12,25.55-35.86,16.66-75.42,19.39-113.01,3-10.31,24.51-11.11,51.34-1.67,76.11,15.35,40.3,51.94,68.75,96.44,72.89,1.36-30.43,13.69-57.46,34.82-78.67,8.49-8.52,21.3-9.17,29.18-1.03,8.74,9.04,7.55,21.5-1.23,30.31-37.59,37.71-25.31,98.25,12.57,130.49,32.36,27.54,76.84,33.8,115.78,14.87,33.89-16.47,63.23-51.41,63.26-91.57l.51-656.59c.03-39.78-30.3-75.77-71.83-78.03-27.15-1.47-52.59,10.69-67.09,34.89,27.02,18.16,39.75,48.03,41.38,80.63-1.46,11.21-10.37,18.66-21.05,18.29-9.33-.32-19.02-7.3-19.53-18.53-1.02-22.53-12.45-46.41-35.79-53.01-29.68-8.39-62.83,5.15-80.31,30-12.42,17.66-17.46,37.48-14.84,58.7,28.13,1.06,54.97,9.85,75.86,29.18,23.5,21.75,37.29,51.88,38.29,83.96.38,12.19-9.85,20.24-20.34,20.11s-19.76-7.5-20.23-19.31c-1.15-28.68-17.13-56.14-44.64-67.46-48.39-19.91-102.88,8.94-116.56,59.14-6.62,24.28-3.49,48.39,8.08,71.13,4.87,9.56,5.47,22.31-3.73,29.02-43.43,31.67-58.88,88.4-34.36,138.13Z"/>
    <path class="cls-1" d="M787.38,377.87c-6.09,35.25-26.41,64.4-54.69,84.7-29.01,20.82-64.86,28.67-100.35,21.38-55.12-11.33-96.48-56.63-104.76-111.77-1.6-10.67,6.29-19.74,15.35-21.87,9.95-2.35,22.08,3.2,23.64,14.13,6.7,46.99,46.74,84.46,95.52,82.22,43.19-1.98,77.48-34.9,86.5-76.18,2.34-10.71,12.64-15.4,22.35-14.1,8.4,1.12,18.42,9.99,16.43,21.5Z"/>
    <path class="cls-1" d="M612.72,714.31c.36,12.63-6.18,22.01-17.69,23.34-9.29,1.08-21.7-5.4-22.56-17.05-2.16-29.45,4.82-59.71,18.13-86.33,14.51-29.03,37.74-50.84,67.15-62.97,12.02-4.96,24.41-2.32,29.32,9.72s-1.31,23.6-14,27.76c-15.04,4.93-27.1,15.21-36.7,27.87-16.82,22.16-24.47,48.92-23.64,77.65Z"/>
    <path class="cls-1" d="M160.92,377.84c-2.2-11.24,7.5-19.61,15.19-21.24,10.26-2.18,21.41,2.93,23.7,13.64,5,23.32,17.17,42.86,35.8,57.37,35.55,27.69,84.19,25.34,116.94-5.97,16.31-15.59,25.6-35.02,29.28-57.19,1.66-9.97,11.6-15.49,21.34-14.67,8.33.7,18.42,8.87,17.52,19.46-2.7,31.82-18.07,60.03-41.51,81.92-31.07,29.02-73.69,41.79-116.01,32.49-51.81-11.39-91.96-53.24-102.25-105.79Z"/>
    <path class="cls-1" d="M381.69,718.03c-.38,12.68-11.15,20.31-21.78,19.78-12.08-.61-19.02-10.54-18.65-22.89,1.29-43.84-19.86-91.39-61.76-106.5-11.95-4.31-17.48-16.57-12.85-27.26,5.09-11.76,17.49-14.58,29.34-9.89,30.71,12.15,54.4,35.49,68.49,65.63,11.85,25.35,18.07,52.53,17.21,81.13Z"/>
  </g>
</svg>