<?xml version="1.0" encoding="UTF-8"?>
<svg id="Layer_1" data-name="Layer 1" xmlns="http://www.w3.org/2000/svg" viewBox="0 0 947.14 973.07">
  <defs>
    <style>
      .cls-1 {
        fill: #fff;
      }
    </style>
  </defs>
  <path class="cls-1" d="M499.64,645.85c-14.28-22.85-39.17-33.88-50.93-59.02-10.63,10.87-13.91,27.48-8.16,42.38,7.79,20.18,12.43,39.45,13.5,61.31l10.07,204.51-123.18-.33c-7.11-.02-12.08-7.29-13.82-12.63l-12.29-63.72c-9.97-64.09-4.64-128.4,14.32-190.04l26.67-93.04-170.23-170.05c-6.54-6.53-6.01-15.45.41-21.58l35.55-40.09,73.56-81.77,109.49,109.08c19.79,19.71,38.13,38.7,44.79,66.2,2.38,9.82,1.99,19.36-1.6,28.8-4.41,11.61-4.51,23.81,1.22,35.4,9.91,20.04,30.43,33.7,53.23,34.43,22.94.74,43.84-7.87,60.67-23.05,14.22-12.84,24.97-28.67,30.47-46.6,13.16-42.95-11.9-85.8-54.75-96.18-6.5-1.57-12.02-5.38-18.39-8.05-14.32-8.94-28.23-17.18-41.07-28.27l-134.42-116.01,130.52-96.63c5.8-4.3,13.06-2.89,17.88,2.3l226.38,226.32c7.02,7.02,12.56,13.6,17.75,21.96,21.67,34.9,31.37,75.31,28.45,116.67l-6.26,43.73-10.13,45.87c-8.93,40.44-15.38,80.39-15.4,122.27l-.1,217.84c.97,9.13-5.3,17.09-14.64,17.09l-99.85.08-7.79-146.67c-1.21-22.74.87-43.58,2.8-66.22l12.67-148.56c1.27-14.88-7.13-26.65-20.73-30.8-13.84-4.22-27.65-6.5-42.02-5.85-19.89,13.12-41.53,19.16-64.74,19.95-13.06.45-33.58,7.09-35.28,18.98-2.08,14.59-1.74,30.23,4.01,44.24,4.78,11.65,14.3,19.53,23.59,27.48,27.85,23.81,39.73,47.47,43.24,84.42l22.06,202.99-58.24.08-9.98-196.67c-.43-18.74,1.87-35.93,10.7-52.56ZM664.36,389.54c-1.99-8.93-6.45-16.17-13.38-21.95-9.68-8.08-20.66-15.44-33.89-16.2-5.68-.32-9.67,7.74-7.72,13,8.34,22.46,9.7,45.82,2.61,68.98-1.09,3.57,3.02,7.47,5.06,9.56,9.92,10.18,22.52,24.95,33.32,22.11,15.11-3.98,18.71-54.37,14-75.5Z"/>
</svg>